<svg xmlns="http://www.w3.org/2000/svg" width="1200" height="1200" viewBox="0 0 1200 1200">
  <g id="Group_621" data-name="Group 621" transform="translate(3451 -9508)">
    <g id="Group_620" data-name="Group 620">
      <g id="Rectangle_706" data-name="Rectangle 706" transform="translate(-3451 9508)" fill="#fff" stroke="#707070" stroke-width="1">
        <rect width="1200" height="1200" stroke="none"/>
        <rect x="0.5" y="0.5" width="1199" height="1199" fill="none"/>
      </g>
    </g>
    <g id="smoketrees" transform="translate(-3212.183 9672.818)" style="isolation: isolate">
      <path id="g4" d="M268.022,267.6c-44.079,14.114-34.373,72.8,4.452,76.671C320.649,349.1,327.8,272.1,279.153,267.6,274.633,266.778,272.363,267.313,268.022,267.6Z" transform="translate(220.413 311.433)" fill="#33ba51" stroke="#33ba51" stroke-width="1"/>
      <path id="lb3" d="M250.117,235.164C238.608,240,229.77,247.23,228.3,260.432c-2.4,21.505,19.457,38.246,39.626,31.946C304.7,280.913,292.727,226.482,250.117,235.164Z" transform="translate(207.15 271.051)" fill="#16a9bb" stroke="#16a9bb" stroke-width="1"/>
      <path id="b6" d="M309.192,175.424c-24.867,13.691-10.151,41.1,11.086,37.89,16.763-2.538,23.509-22.685,10.619-34.128C324.107,173.154,317.362,173.51,309.192,175.424Z" transform="translate(290.597 197.419)" fill="#293b9f" stroke="#293b9f" stroke-width="1"/>
      <path id="b5" d="M326.38,82.061c-29.386,12.689-11.376,46.928,13.357,39.4,16.986-5.187,18.433-24,10-33.3C343.21,80.992,335.218,80.458,326.38,82.061Z" transform="translate(308.984 83.545)" fill="#293b9f" stroke="#293b9f" stroke-width="1"/>
      <path id="g3" d="M298.024,104.5c-59.351,14.582-48.865,93.7,6.679,97.129,53.563,3.295,74.556-67.231,26.714-92.321a46.008,46.008,0,0,0-20.036-4.809C306.105,103.766,303.144,104.211,298.024,104.5Z" transform="translate(243.839 111.484)" fill="#33ba51" stroke="#33ba51" stroke-width="1"/>
      <path id="lb2" d="M234.675,144.94c-32.391,12.8-15.272,54.319,13.357,46.439,18.923-5.232,22.418-28.518,10.508-40.406C251.5,143.916,243.869,143.493,234.675,144.94Z" transform="translate(193.652 160.739)" fill="#16a9bb" stroke="#16a9bb" stroke-width="1"/>
      <path id="b4" d="M257.411,40.942c-29.1,11.665-12.088,44.591,13.357,37.534,15.828-4.408,19.279-21.572,10.174-31.5C274.375,39.784,266.271,39.539,257.411,40.942Z" transform="translate(224.345 33.212)" fill="#293b9f" stroke="#293b9f" stroke-width="1"/>
      <path id="b3" d="M230.325,14.424c-24.733,13.624-11.287,43.5,11.086,40.116,17.453-2.649,23.665-24.778,10.619-36.354C245.24,12.154,238.495,12.51,230.325,14.424Z" transform="translate(193.594 0)" fill="#293b9f" stroke="#293b9f" stroke-width="1"/>
      <path id="dg3" d="M248.618,129.956c-23.82,4.452-44.68,12.934-62.133,30.388-57.28,57.28-33.17,157.259,44.324,181.569,15.717,4.942,32.614,6.834,48.977,4.252a114.781,114.781,0,0,0,44.524-16.541C381.033,293,389.715,211.48,343.967,162.459,319.968,136.746,283.013,125.548,248.618,129.956Z" transform="translate(117.374 142.04)" fill="#27b07c" stroke="#27b07c" stroke-width="1"/>
      <path id="g2" d="M164.132,189.555c-48.019,15.45-36.22,76.248,6.679,79.231,55.143,3.874,59.952-75.98,6.679-79.231C172.413,188.732,169.074,189.244,164.132,189.555Z" transform="translate(90.551 215.724)" fill="#33ba51" stroke="#33ba51" stroke-width="1"/>
      <path id="dg2" d="M169.043,29.5c-58.839,14.448-49.555,95.883,6.679,99.356,66.719,4.118,72.285-95.727,6.679-99.356C177.124,28.766,174.163,29.211,169.043,29.5Z" transform="translate(85.64 19.519)" fill="#27b07c" stroke="#27b07c" stroke-width="1"/>
      <path id="b2" d="M130.325,69.424c-24.733,13.624-11.287,43.5,11.087,40.116,17.453-2.649,23.665-24.778,10.619-36.354C145.24,67.154,138.495,67.51,130.325,69.424Z" transform="translate(70.974 67.441)" fill="#293b9f" stroke="#293b9f" stroke-width="1"/>
      <path id="g1" d="M130.19,115.163c-10.753,4.519-18.7,11.109-21.394,23.041-5.076,22.618,16.941,43.344,39.2,36.4C184.309,163.271,173.645,106.3,130.19,115.163Z" transform="translate(59.933 123.908)" fill="#33ba51" stroke="#33ba51" stroke-width="1"/>
      <path id="lb1" d="M108.191,134.555c-47.841,15.405-36.755,78.429,6.679,81.457,55.566,3.9,59.907-78.207,6.679-81.457C116.472,133.732,113.133,134.244,108.191,134.555Z" transform="translate(21.825 148.283)" fill="#16a9bb" stroke="#16a9bb" stroke-width="1"/>
      <path id="b1" d="M76.586,120.941C43.1,134.12,63.719,170.14,89.943,162.927c16.474-4.541,23.576-23.42,10.619-35.953C93.349,119.961,85.914,119.472,76.586,120.941Z" transform="translate(0 131.309)" fill="#293b9f" stroke="#293b9f" stroke-width="1"/>
      <path id="dg1" d="M111.489,186.841C53.764,200.933,71.64,287.02,129.3,276.023c37.133-7.079,47.329-56.145,19.635-80.143C138.248,186.618,124.958,184.993,111.489,186.841Z" transform="translate(20.752 212.116)" fill="#27b07c" stroke="#27b07c" stroke-width="1"/>
      <path id="trunk" d="M351.326,839.512V717.049s-2.182-2.159-2.2-2.159-2.248-2.36-2.248-2.36L344.6,710.37l-2.293-2.182-2.449-2.137-15.316-13.446-26.781-24.577L179.285,550.885l.178-61.176L118.8,428.622s-1.113-7.925,6.411-5.855c7.5,2.093,53.14,51.359,53.14,51.359l-.757-102.072.022-4.519L77.213,274.3s-3.206-8.615,5.143-6.389c.134.134,37.979,35.486,37.845,35.486-.156,0,58.3-55.655,58.3-55.655s3.74,1.113,4.163,3.762c.134.267-54.542,57.881-54.542,57.881l58.861,55.5,1.8,178.653,48.42,52.739,55.945-53.985V491.645l-57.347-61.777s-1.113-8.348,6.968-5.009l52.605,55.1-.579-57.881s4.185-2.493,6.968-.557,1.113,123.265,1.113,123.265L243.6,601.553l106.324,99.912,1.38-94.614-29.787-30.61s-1.113-8.615,6.679-5.009c1.113.846,23.108,23.464,23.108,23.464l.045-222.465L235.14,258.25l-.4-61.532L199.12,155.845s-2.427-7.7,6.478-5.254c1.2.4,29.942,34.8,29.942,34.8l1.224-108.06s1.2-8.1,8.081,0c.4.4-2.827,174.445-2.827,174.445L297.274,304.4l52.605-51L296.25,197.541s-2.827-9.528,7.079-6.278c1.024-.2,51.2,52.605,51.2,52.605l52.628-54.831.6-160.086s1.425-4.252,6.278,0c.4.8,0,92.276,0,92.276s39.671-33.193,40.072-32.569c.4.6,3.651-.623,3.851,3.428.4.4-41.5,37.445-41.5,37.445l-.2,65.584L305.355,309.653l51.2,51.4L409.986,305.4s5.877-2.627,7.1,3.028c1.2,5.677-54.787,59.8-54.787,59.8l-2.939,228.342,80.9-79.008L387.9,464.642s.557-5.187,5.988-3.451c.289.824,50.869,51.091,50.869,51.091l80.188-79.631V369.494l-48.709-55.388s-2.226-8.059,6.411-6.411c1.113.289,44.524,49.555,44.524,49.555l.557-108.817,77.361-74.021s7.792,1.4,5.3,7.792c-.289.289-74.867,70.125-74.867,70.125s-.824,48.153-.824,47.863,53.429-52.872,53.429-52.872,5.165-.957,5.454,5.9c0,.557-59.239,60.4-59.239,60.4l-.69,110.242s35.686-37.89,37.089-39.293c3.762-.089,6.367,1.158,5.41,4.942S360.164,605.739,360.164,605.739l-.49,96.15S469.537,601.442,469.382,601.442c2.983-.646,8.126,2.716,6.59,6.612.156,0-114.761,106.368-114.761,106.368s.623,125.669-.2,125.669" transform="translate(21.368 17.019)" fill="#293b9f" stroke="#293b9f" stroke-width="1"/>
    </g>
  </g>
</svg>
